<svg width="44" height="44" fill="none" xmlns="http://www.w3.org/2000/svg"><path d="M44 22a21.931 21.931 0 0 1-6.444 15.556A21.932 21.932 0 0 1 22 44a21.931 21.931 0 0 1-15.556-6.444A21.931 21.931 0 0 1 0 22 21.931 21.931 0 0 1 6.444 6.444 21.931 21.931 0 0 1 22 0a21.931 21.931 0 0 1 15.556 6.444A21.931 21.931 0 0 1 44 22Z" fill="#E5E5E5"/><path d="M21.293 22 6.448 36.845A21.426 21.426 0 0 1 .5 22 21.426 21.426 0 0 1 6.448 7.155L21.293 22Zm16.26 14.845L22.706 22 37.552 7.155A21.426 21.426 0 0 1 43.5 22a21.426 21.426 0 0 1-5.948 14.845Zm-.708-30.397L22 21.293 7.155 6.448A21.426 21.426 0 0 1 22 .5a21.426 21.426 0 0 1 14.845 5.948ZM22 22.708l14.845 14.844A21.426 21.426 0 0 1 22 43.5a21.425 21.425 0 0 1-14.845-5.948L22 22.707Z" stroke="#000" stroke-opacity=".3"/></svg>